<svg xmlns="http://www.w3.org/2000/svg" data-name="Layer 1" viewBox="0 0 136.06 249.45" preserveAspectRatio="xMinYMid meet"><path fill="#2891e1" d="M0 206.93h136.06v42.52H0zM0 0h136.06v204.1H0z"/><path fill="#e61432" d="M0 204.1h136.06v2.84H0z"/><path d="M110.79 143.14c-1.7-.47-2-2.16-2.16-4.92l-.46-25.37V96.56c0-15.83-.31-27.51-28.74-27.51-13.22 0-21.83 5.84-27.67 10.29V42.61c0-3.54-1.54-5.38-6-5.38a172.4 172.4 0 0 0-31 3.23v11.37h12v53.74h25.62V89.49c4.61-1.69 12.29-2.61 18.9-2.61 11.07 0 11.22 8.76 11.22 18v8l-.31 24.75c0 2.31-.3 4.31-2.92 5.54l-5.38 2.45a30.49 30.49 0 0 0 .62 9.38h43.81c.92-2.46 1.23-3.69 1.23-9.38ZM26.71 116.46H29v3.91h4.1v-3.91h2.31v9.62H33.1v-4H29v4h-2.29Z" fill="#fff"/><path d="M37.6 122.16v-5.7h2.34v5.62c0 1.47.67 2.28 2.14 2.28s2.13-.85 2.13-2.57v-5.33h2.27v5.37c0 3.36-2.26 4.42-4.4 4.42s-4.48-.98-4.48-4.09ZM48.67 116.46H51v9.62h-2.33ZM52.56 125.54l.65-1.65a6.77 6.77 0 0 0 2.54.43c1.16 0 1.69-.35 1.69-.94 0-1.56-4.57-1.14-4.57-4.4 0-1.85 1.76-2.65 3.46-2.65a6.38 6.38 0 0 1 3 .65l-.67 1.6a7.23 7.23 0 0 0-2.27-.39c-1 0-1.26.37-1.26.77 0 1.28 4.65 1.28 4.65 4.34 0 2.11-2 2.92-4 2.92a6.29 6.29 0 0 1-3.22-.68ZM25.69 130.91h2.43l2.38 7.89 2.83-7.89h2.35L32 140.52h-3ZM38.89 130.91h3l3.24 9.61h-2.4l-.91-2.81h-3.27l-1 2.81H35.2Zm2.37 5.09-1-3.7-1.09 3.7ZM46.45 130.91h2.68l3.78 6.59-.07-1.07v-5.52h2.32v9.61H52.4l-3.69-6.43.06 1.28v5.15h-2.32ZM26.71 145.36H29v3.9h4.1v-3.9h2.31V155H33.1v-4H29v4h-2.29ZM37.67 145.36H40V155h-2.33ZM42.24 145.36h2.31v7.79h4.17V155h-6.48ZM50.17 145.36h3.44c3.33 0 5.61 1.43 5.61 4.77S57.15 155 53.69 155h-3.52Zm3.67 7.8c2.21 0 3.07-1 3.07-2.89 0-2.07-1-3.1-3.34-3.1h-1.11v6ZM61 145.36h6.31v1.81h-4v2.13H67v1.7h-3.7v2.17h4.31V155H61Z" fill="#fff"/><path fill="#fff" fill-rule="evenodd" d="M59.52 233.55h.75v-3.54l-.03-.55 2.31 4.09h1.05v-4.96h-.76v3.56l.03.6-2.36-4.16h-.99v4.96zM66.52 233.63a1.76 1.76 0 0 0 1.83-2c0-1.27-.57-2-1.78-2a1.81 1.81 0 0 0-1.83 2 1.72 1.72 0 0 0 1.78 2Zm0-.59c-.81 0-1.08-.64-1.08-1.4s.23-1.43 1.07-1.43 1.06.74 1.06 1.42-.17 1.37-1.01 1.37ZM70.91 233.63a1.77 1.77 0 0 0 1.83-2c0-1.27-.57-2-1.78-2a1.81 1.81 0 0 0-1.83 2 1.72 1.72 0 0 0 1.78 2Zm0-.59c-.82 0-1.08-.64-1.08-1.4s.22-1.43 1.07-1.43 1.1.79 1.1 1.42-.21 1.37-1 1.37ZM73.76 233.55h.73v-2.75a1.24 1.24 0 0 1 1-.53 2.05 2.05 0 0 1 .47 0l.11-.61a1.44 1.44 0 0 0-.47-.07 1.34 1.34 0 0 0-1.07.6v-.51h-.73ZM78.06 233.61a1.42 1.42 0 0 0 1-.4v.34h.73v-5.29H79v1.44a2.34 2.34 0 0 0-.69-.08 1.83 1.83 0 0 0-1.9 2c.01 1.69.94 1.99 1.65 1.99Zm.1-.61c-.57 0-1-.38-1-1.35 0-.77.32-1.44 1.17-1.44a2.51 2.51 0 0 1 .68.1v2.35a1.85 1.85 0 0 1-.85.34Z"/><path fill="#fff" d="M80.64 231.23h2.09v.61h-2.09z"/><path fill="#fff" fill-rule="evenodd" d="M83.76 233.55h.75v-2.19h2.54v2.19h.76v-4.96h-.76v2.17h-2.54v-2.17h-.75v4.96zM90.72 233.63a1.76 1.76 0 0 0 1.83-2c0-1.27-.57-2-1.78-2a1.81 1.81 0 0 0-1.83 2 1.72 1.72 0 0 0 1.78 2Zm0-.59c-.83 0-1.09-.64-1.09-1.4s.23-1.43 1.07-1.43 1.06.74 1.06 1.42-.16 1.37-.99 1.37Z"/><path fill="#fff" d="M93.58 228.26h.73v5.29h-.73zM95.59 228.26h.73v5.29h-.73z"/><path d="M98.45 233.61a2 2 0 0 0 1.26-.48c.06.33.46.46.82.46h.16v-.57c-.18 0-.35-.07-.35-.31v-2c0-.79-.5-1.08-1.45-1.08a3.39 3.39 0 0 0-1.32.25l.15.55a4.68 4.68 0 0 1 1-.17c.61 0 .89.11.89.64v.43h-.84c-.66 0-1.52.21-1.52 1.15a1 1 0 0 0 1.2 1.13Zm.17-.59c-.36 0-.61-.14-.61-.58s.3-.59.82-.6h.82v.89a2.75 2.75 0 0 1-1.03.27ZM101.79 233.55h.74v-2.89a2.3 2.3 0 0 1 1.09-.4c.62 0 .71.32.71 1v2.34h.73v-2.5c0-.72-.07-1.48-1.22-1.48a2.26 2.26 0 0 0-1.31.52v-.42h-.74ZM107.69 233.61a1.39 1.39 0 0 0 .94-.4v.34h.73v-5.29h-.73v1.44a2.29 2.29 0 0 0-.69-.08 1.82 1.82 0 0 0-1.89 2c0 1.69.95 1.99 1.64 1.99Zm.1-.61c-.58 0-1-.38-1-1.35 0-.77.33-1.44 1.17-1.44a2.38 2.38 0 0 1 .68.1v2.35a1.81 1.81 0 0 1-.85.34ZM59.52 226.53h.76v-4.36h.79c.74 0 1.07.36 1.07 1s-.47 1-1.24 1h-.31v.61h.27c1.4 0 2.06-.76 2.06-1.67a1.53 1.53 0 0 0-1.69-1.62h-1.71ZM63.73 226.53h.73v-2.75a1.24 1.24 0 0 1 1-.53 1.64 1.64 0 0 1 .48.05l.11-.62a1.56 1.56 0 0 0-.47-.06 1.31 1.31 0 0 0-1.07.59v-.51h-.73ZM68.17 226.62a1.77 1.77 0 0 0 1.83-2c0-1.27-.57-2-1.78-2a1.82 1.82 0 0 0-1.83 2.06 1.72 1.72 0 0 0 1.78 1.94Zm0-.6c-.82 0-1.08-.64-1.08-1.39s.23-1.44 1.07-1.44 1.06.75 1.06 1.43-.17 1.38-1.01 1.38ZM71.81 226.53h.97l1.4-3.83h-.76l-.85 2.46-.26.81-.23-.8-.76-2.47h-.79l1.28 3.83zM75 226.53h.74v-3.83H75Zm.36-4.46.56-.56-.56-.55-.55.55ZM77 226.53h.73v-2.89a2.3 2.3 0 0 1 1.09-.4c.62 0 .72.32.72.95v2.34h.72v-2.44c0-.73-.07-1.49-1.22-1.49a2.33 2.33 0 0 0-1.31.52v-.42H77ZM83.26 226.6a3.37 3.37 0 0 0 .93-.13l-.11-.58a4.27 4.27 0 0 1-.76.1c-1 0-1.34-.44-1.34-1.39s.48-1.39 1.14-1.39a2 2 0 0 1 .88.19l.21-.56a2.25 2.25 0 0 0-1.09-.24 1.82 1.82 0 0 0-1.89 2c0 1.4.6 2 2.03 2ZM85.12 226.53h.74v-3.83h-.74Zm.36-4.46.56-.56-.56-.55-.55.55ZM88.77 226.62a4.35 4.35 0 0 0 1.28-.19l-.12-.58a5.25 5.25 0 0 1-1 .16c-.74 0-1.3-.17-1.32-1.22h2.52v-.26c0-1.24-.44-1.93-1.47-1.93s-1.78.53-1.78 2.08.74 1.94 1.89 1.94Zm-1.13-2.34c0-.75.42-1.14 1-1.14s.79.46.79 1.14Z" fill="#fff" fill-rule="evenodd"/><path fill="#fff" d="M42.19 222.33h1.25v.45h-1.25v-.45zM44.95 222.33h1.26v.45h-1.26v-.45zM42.19 227.32h1.25v.46h-1.25v-.46zM44.95 227.32h1.26v.46h-1.26v-.46zM42.01 232.36h1.26v.46h-1.26v-.46zM42.56 225a.41.41 0 0 1-.11-.27 1 1 0 0 0-.21-.46.37.37 0 0 1-.37 0 .93.93 0 0 0 .23-.28 1.43 1.43 0 0 1-.3-.16.59.59 0 0 1 .33-.2 1.21 1.21 0 0 1-.21-.31c.37-.15.54.08.56.45a.4.4 0 0 0 .11.2l.19.21v.16a1.39 1.39 0 0 1-.22.66ZM45.05 226.58a2.44 2.44 0 0 1-.52.29.31.31 0 0 1-.15.24c-.05-.07-.12-.22-.19-.26a.68.68 0 0 1-.22.35.35.35 0 0 1-.14-.32 1.2 1.2 0 0 1-.3.15c-.09-.47.35-.62.69-.53a1 1 0 0 0 .25-.13.47.47 0 0 1-.12-.38c.19-.05.46-.36.68-.41a1 1 0 0 0 .16.4.49.49 0 0 0-.14.6Z"/><path d="M36.31 230.75c0-.06.09-.44.29-.48a.48.48 0 0 1 .29-.18.27.27 0 0 1-.18-.15 1.94 1.94 0 0 0-.42-.19.58.58 0 0 1 .45-.13.41.41 0 0 1 .19 0 .5.5 0 0 1 .46.29c0 .06.1.25.18.25s.33-.22.38-.33a1.87 1.87 0 0 1-.63-1.11 1.24 1.24 0 0 1 1.59-.4.78.78 0 0 1 .15.22 1.7 1.7 0 0 0-.4 1.72 2.46 2.46 0 0 0-.71.62c-.15-.14-.25-.05-.34 0a.66.66 0 0 1-.17.42c0 .28-.46.3-.49.28a.55.55 0 0 0 .18-.44.73.73 0 0 1 0-.47.63.63 0 0 1-.41 0c-.18-.1-.36.07-.41.08Zm3.26 2a.56.56 0 0 1-.07-.6.36.36 0 0 1 .1-.28.3.3 0 0 1-.28.06 1.07 1.07 0 0 0-.45.1.52.52 0 0 1 .32-.41c.09-.27.33-.28.66-.21a1.77 1.77 0 0 0 .2 0c.13 0 .22-.1.19-.27a3.57 3.57 0 0 1-.06-.56c-.32.07-.69-.08-1 .15a1.84 1.84 0 0 1 .16-2.26 1.66 1.66 0 0 0-.34-.42 3.11 3.11 0 0 1-.44-.52c.07-.44.61-.77 1.13-1.15a1.42 1.42 0 0 0 .17 1.29c.1.19.21.36.3.51a.76.76 0 0 1 .1.42c.07.12.28.39.44.39s.18-.08.18-.21c0-.66-1-1.11-1-2 0-.6.37-.87.71-.87a.38.38 0 0 1 .41.48c.24.1.17.36.12.58a1.3 1.3 0 0 0 .09.93c-.14 0-.45-.44-.6-.77s-.19-.71.14-.74a.18.18 0 0 0-.17-.2c-.25 0-.4.22-.4.58 0 .72 1 1.17 1 2a.56.56 0 0 1-.53.6.62.62 0 0 1-.48-.26c0 .54.36.71.84.66a3.86 3.86 0 0 0 .06 1.69.63.63 0 0 0-.43.41.48.48 0 0 1 .07.37.45.45 0 0 1-.12.55.65.65 0 0 0-.21-.47.9.9 0 0 1-.25-.35 1.67 1.67 0 0 1-.31.34c-.2.12-.23.38-.25.4Zm-3-4.87a.38.38 0 0 0 .28-.23.52.52 0 0 1 .16-.34.56.56 0 0 1-.35-.06c-.17-.09-.36.09-.46.09a.64.64 0 0 1 .35-.42.47.47 0 0 1 .35-.11.63.63 0 0 1-.32-.27c-.11-.13-.29-.1-.4-.15a.6.6 0 0 1 .46-.18c.18-.15.41 0 .55.24s.16.22.28.21.25-.15.36-.27a1.24 1.24 0 0 1 .61-1.3c.35-.24 1-.37 1-.5a.85.85 0 0 1-.52-.05c-.1-.07-.09-.14 0-.23.28.15.52.11.62 0a.62.62 0 0 0-.4-.11c-.25 0-.43.12-.65.13a.39.39 0 0 1-.41-.2.32.32 0 0 1 .14-.46.33.33 0 0 0 .35.44h.55a.77.77 0 0 1 .46.16.61.61 0 0 0 0-.32c-.2-.14-.54 0-.68.05a1.27 1.27 0 0 1-.15-.56c.23-.35 1.6-.76 1.9-.87a.86.86 0 0 1-.08.41.86.86 0 0 1 .52 0 1 1 0 0 1-.21.7 1 1 0 0 1 .23.71 4.41 4.41 0 0 1-.35 1.29 1.09 1.09 0 0 0 0 .4.73.73 0 0 1-.32-.41 2.25 2.25 0 0 1-.72.78c-.57.43-1.27.87-1.25 1.36a1 1 0 0 1-.28-.46c-.36.28-.36.22-.49.72 0-.06-.14-.2-.24-.19a.49.49 0 0 1-.27.28c-.46-.06-.65-.27-.64-.32Zm-.3-4.47a.52.52 0 0 1 .48-.12.41.41 0 0 1 .33.1.82.82 0 0 1-.12-.43c0-.12-.21-.23-.23-.35a.61.61 0 0 1 .5.15c.17 0 .38.14.27.53a.65.65 0 0 0 .06.61 11.63 11.63 0 0 0 .73.92h-.07a1.29 1.29 0 0 0-.62.87c-.11-.34-.18-.82-.51-.91.18-.21 0-.52-.05-.49a.61.61 0 0 1-.39.11c-.45.1-.45-.18-.42-.2s.28-.11.32-.12a.57.57 0 0 1 .3-.2.51.51 0 0 1-.22-.24c-.09-.21-.28-.18-.38-.27Zm10.94 9.93v-3.79h3.66v3.79h4.86v-11.52h-4.88v3.84h-3.66v-3.84H41.5v11.48Zm-15.26.25H26.7v-12h5.66l3.19 6v-6h11.89v3.84h3.15v-3.84H56v12h-5.41v-3.78h-3.15v3.78H35l-3.1-5.82Z" fill="#fff" fill-rule="evenodd"/><path d="M44.86 231.63a2.14 2.14 0 0 1-.39.28c0 .09 0 .23-.14.27a1.31 1.31 0 0 0-.2-.3.75.75 0 0 1-.23.36.37.37 0 0 1-.14-.33 1.24 1.24 0 0 1-.3.16c-.1-.42.34-.59.68-.5a.63.63 0 0 0 .21-.12.47.47 0 0 1-.11-.44c.24-.1.48-.37.72-.38a1.05 1.05 0 0 0 0 .4.57.57 0 0 0-.1.6ZM42.55 230.06a.46.46 0 0 1-.1-.26 1 1 0 0 0-.21-.46.37.37 0 0 1-.37 0 2.25 2.25 0 0 0 .24-.3 1.06 1.06 0 0 1-.31-.14.52.52 0 0 1 .34-.2 3.65 3.65 0 0 1-.24-.31c.35-.17.56.09.59.47a.31.31 0 0 0 .06.13l.18.2a1.68 1.68 0 0 1-.18.87Z" fill="#fff"/><path d="M45.2 230.37c-.47 0-.92.55-1.39.39a1.85 1.85 0 0 0 .78-1.09.84.84 0 0 0 .44 0 .94.94 0 0 1 .7.1c.27.05.49-.11.49-.27s-.11-.21-.25-.21c-.31 0-.56.15-.87.15a.55.55 0 0 1-.55-.62.56.56 0 0 1 .74-.54c.13-.28.43 0 .81 0a.69.69 0 0 0 .49-.21c0 .17-.15.39-.46.53s-.93.22-.91-.08a.3.3 0 0 0-.39.29.29.29 0 0 0 .28.31c.29 0 .55-.14.89-.14a.49.49 0 0 1 .54.51c0 .43-.44.58-.66.59 0 .33.15.41.44.44a2.08 2.08 0 0 1-.22.92.54.54 0 0 1 .07.36 1.31 1.31 0 0 1-.27-.12.61.61 0 0 1-.28.37c-.09 0-.13-.14-.16-.22a.5.5 0 0 1-.33.14c-.12-.36.15-.58.46-.59a.82.82 0 0 0 .13-.4.81.81 0 0 0-.41.26.66.66 0 0 1-.14-.47 2.47 2.47 0 0 1 .03-.4Z" fill="#fff"/><path d="M43.26 223.43c0 .08.21.24.26.27s0-.18 0-.2a1.83 1.83 0 0 0-.26-.07Zm.28.86c-.14 0-.14-.17-.14-.28s.14 0 .2 0a.23.23 0 0 0-.13-.18v-.06a1.06 1.06 0 0 0 .31 0 .21.21 0 0 1 0 .06c-.06 0-.15.08-.16.17s.17 0 .21 0 0 .23-.14.27a.4.4 0 0 1-.12.42.43.43 0 0 1-.03-.4Zm.53-.87c0 .08-.22.25-.27.28s0-.18 0-.2.2-.06.27-.08Zm-1.22 2.1c-.24.11-.45.07-.54-.1.49-.08.59-.54.64-.95 0-.25.06-.47.08-.66a1.32 1.32 0 0 1 .07-.41c-.11-.12-.07-.32-.08-.44a.75.75 0 0 1 .42.18.9.9 0 0 1 .46 0 .57.57 0 0 1 .48-.15c-.08.13-.07.29-.15.38a5.32 5.32 0 0 1 .16 1.16 1.85 1.85 0 0 1-.81 1.12 1.36 1.36 0 0 1 0 .21 1.13 1.13 0 0 1-.37.35 1.34 1.34 0 0 0-.4.51.31.31 0 0 1-.22.42c0-.09 0-.26-.12-.31a.47.47 0 0 1-.33.19.47.47 0 0 1 0-.35.5.5 0 0 1-.34 0c.07-.38.3-.38.59-.39h.11a2.76 2.76 0 0 0 .35-.76Z" fill="#fff" fill-rule="evenodd"/><path d="M45.2 225.33c-.46 0-.92.55-1.38.39a1.75 1.75 0 0 0 .76-1.08.86.86 0 0 0 .45 0 .9.9 0 0 1 .7.09c.27 0 .49-.12.49-.27s-.12-.21-.26-.21c-.3 0-.56.14-.86.14a.58.58 0 1 1 .18-1.15c.14-.28.44 0 .82 0a.69.69 0 0 0 .49-.21c0 .17-.15.39-.46.53s-.94.22-.91-.08a.31.31 0 1 0-.11.61c.28 0 .55-.14.88-.14a.48.48 0 0 1 .54.5.63.63 0 0 1-.6.59c0 .34.49.4.75.43a2.19 2.19 0 0 1-.25.94.61.61 0 0 1 .06.35.8.8 0 0 1-.27-.12.59.59 0 0 1-.28.37.29.29 0 0 1-.16-.22.43.43 0 0 1-.33.14.45.45 0 0 1 .46-.59c0-.07.2-.32.17-.41a.6.6 0 0 0-.41.23 1.44 1.44 0 0 1-.47-.83Z" fill="#fff"/><path d="M39.74 222.88a5.48 5.48 0 0 0-.56.23.74.74 0 0 0 .39.1c.1-.03.12-.21.17-.33Z" fill="#fff" fill-rule="evenodd"/><path d="M38.67 219.89s-.68-.59-.74-.92a2.78 2.78 0 0 1 .7-1.55 3.4 3.4 0 0 1 1.26 1.45c.06.33-.42 1-.42 1h1.63s-.65-.64-.65-1 .52-1 1-1.51c.53.51 1 1.13 1 1.51s-.65 1-.66 1h1.63s-.48-.69-.42-1a3.37 3.37 0 0 1 1.27-1.45 2.83 2.83 0 0 1 .69 1.55c-.06.33-.74.92-.74.92h1.55c-.1-.21-.42-.66-.22-1.11s1.39-1.45 1.79-1.35a8.73 8.73 0 0 0-1.24 2.46 1.1 1.1 0 0 1 0 1h-9.31a1.13 1.13 0 0 1 0-1 8.47 8.47 0 0 0-1.24-2.46c.41-.1 1.55.8 1.79 1.35s-.12.9-.21 1.11Z" fill="#fff"/><path d="M43.32 228.46c0 .07.17.26.22.31a.62.62 0 0 0 0-.2s-.16-.09-.22-.11Zm.14.9c-.13-.06-.11-.19-.09-.29s.13.05.2.05a.25.25 0 0 0-.11-.21v-.06a1.07 1.07 0 0 0 .3.06.17.17 0 0 1 0 .07c-.06 0-.15.06-.18.15s.17 0 .21 0 0 .23-.19.23c-.08.2 0 .32 0 .41a.33.33 0 0 1-.14-.41Zm.66-.78c0 .08-.25.2-.3.23s0-.19 0-.2a1.84 1.84 0 0 1 .3-.03Zm-1.25 2a.4.4 0 0 1-.56-.13c.75-.12.59-1.12.74-1.68a1.76 1.76 0 0 1 .13-.39c-.08-.12 0-.36 0-.44a.63.63 0 0 1 .38.24.84.84 0 0 1 .46.08.57.57 0 0 1 .5-.08c-.1.11-.13.29-.21.36a6.79 6.79 0 0 1 .09 1 1.82 1.82 0 0 1-.81 1.12 1.49 1.49 0 0 1 0 .21 1.06 1.06 0 0 1-.37.36 1.33 1.33 0 0 0-.4.49.33.33 0 0 1-.22.44c0-.1 0-.26-.12-.32a.45.45 0 0 1-.33.19.45.45 0 0 1 0-.34.5.5 0 0 1-.34 0c.07-.39.3-.38.59-.39h.11a2.9 2.9 0 0 0 .36-.72Z" fill="#fff" fill-rule="evenodd"/><path d="M28.48 165.12h1.23l2.16 6.08h-1l-.74-2.12h-2.3L27 171.2h-.93Zm1.43 3.24-.84-2.62-1 2.62ZM32.77 166.5h.9v.63a1.61 1.61 0 0 1 1.33-.73 1.73 1.73 0 0 1 .57.08l-.13.76a2 2 0 0 0-.58-.06 1.47 1.47 0 0 0-1.17.65v3.37h-.9ZM36 168.84a2.23 2.23 0 0 1 2.32-2.46 2.77 2.77 0 0 1 1.34.29l-.26.69a2.45 2.45 0 0 0-1.08-.23c-.8 0-1.4.55-1.4 1.7s.35 1.71 1.64 1.71a5.92 5.92 0 0 0 .93-.12l.14.71a4.66 4.66 0 0 1-1.13.16c-1.79 0-2.5-.72-2.5-2.45ZM40.75 164.71h.9V167a2.86 2.86 0 0 1 1.61-.64c1.41 0 1.49.93 1.49 1.81v3h-.88v-2.88c0-.77-.12-1.15-.88-1.15a3.14 3.14 0 0 0-1.34.49v3.54h-.9ZM46 168.93c0-1.9.94-2.55 2.19-2.55s1.8.85 1.8 2.37v.32h-3.12c0 1.28.7 1.49 1.62 1.49a6.65 6.65 0 0 0 1.21-.19l.15.71a5.24 5.24 0 0 1-1.57.23c-1.41 0-2.28-.55-2.28-2.38Zm3.05-.49c0-.83-.3-1.4-1-1.4s-1.1.48-1.17 1.4ZM50.85 168.91a2.24 2.24 0 0 1 2.25-2.53c1.48 0 2.18.92 2.18 2.47a2.17 2.17 0 0 1-2.28 2.46 2.11 2.11 0 0 1-2.15-2.4Zm3.52-.06c0-.83-.25-1.74-1.3-1.74s-1.31.9-1.31 1.75.32 1.72 1.33 1.72 1.28-.83 1.28-1.73ZM56.54 164.71h.89v6.49h-.89ZM58.69 168.91a2.24 2.24 0 0 1 2.25-2.53c1.48 0 2.19.92 2.19 2.47a2.18 2.18 0 0 1-2.25 2.46 2.11 2.11 0 0 1-2.19-2.4Zm3.52-.06c0-.83-.25-1.74-1.3-1.74s-1.3.9-1.3 1.75.31 1.72 1.32 1.72 1.28-.83 1.28-1.73ZM64.44 172.94l.15-.75a8 8 0 0 0 1.34.18c.76 0 1.31-.13 1.31-1.08v-.37a1.49 1.49 0 0 1-1 .35c-1 0-2.17-.28-2.17-2.4a2.26 2.26 0 0 1 2.35-2.49 8.51 8.51 0 0 1 1.7.2v4.85c0 1.21-1 1.72-2 1.72a6.83 6.83 0 0 1-1.68-.21Zm2.8-2.7v-3a3.25 3.25 0 0 0-.82-.1c-1 0-1.45.77-1.45 1.76 0 1.22.48 1.67 1.34 1.67a1.73 1.73 0 0 0 .93-.33ZM69.48 165l.67-.68.69.68-.69.69Zm.23 1.46h.9v4.7h-.9ZM71.87 168.93c0-1.9.95-2.55 2.19-2.55s1.8.85 1.8 2.37v.32h-3.09c0 1.28.71 1.49 1.62 1.49a6.51 6.51 0 0 0 1.21-.19l.15.71a5.19 5.19 0 0 1-1.57.23c-1.41 0-2.31-.55-2.31-2.38Zm3-.49c0-.83-.3-1.4-1-1.4s-1.1.48-1.17 1.4ZM77.06 166.5H78v.5a2.63 2.63 0 0 1 1.52-.65 1.27 1.27 0 0 1 1.3.7 2.76 2.76 0 0 1 1.67-.7c1.42 0 1.47 1 1.47 1.81v3H83v-2.87c0-.69-.12-1.15-.86-1.15a2.48 2.48 0 0 0-1.28.48 2.38 2.38 0 0 1 0 .53v3h-.89v-2.87c0-.71-.1-1.15-.84-1.15a2.55 2.55 0 0 0-1.25.49v3.53h-.9ZM85.41 169.48v-3h.9v2.84c0 .72.08 1.17.82 1.17a3.08 3.08 0 0 0 1.37-.49v-3.5h.89v4.7h-.89v-.53a2.89 2.89 0 0 1-1.62.64c-1.37 0-1.47-.95-1.47-1.83ZM90.61 171.1l.13-.71a7.81 7.81 0 0 0 1.26.18c.73 0 1.07-.26 1.07-.61 0-.92-2.37-.59-2.37-2.22 0-.9.77-1.36 1.72-1.36a4.11 4.11 0 0 1 1.27.22l-.16.69a4.3 4.3 0 0 0-1.14-.17c-.57 0-.8.27-.8.56 0 .92 2.35.67 2.35 2.21 0 1.12-1.08 1.41-1.86 1.41a5.12 5.12 0 0 1-1.47-.2ZM94.84 168.93c0-1.9 1-2.55 2.19-2.55s1.8.85 1.8 2.37v.32h-3.09c0 1.28.71 1.49 1.62 1.49a6.51 6.51 0 0 0 1.21-.19l.15.71a5.19 5.19 0 0 1-1.57.23c-1.41 0-2.31-.55-2.31-2.38Zm3-.49c0-.83-.3-1.4-1-1.4s-1.1.48-1.17 1.4ZM100 169.48v-3h.89v2.84c0 .72.08 1.17.83 1.17a3.18 3.18 0 0 0 1.37-.49v-3.5h.91v4.7h-.88v-.53a3 3 0 0 1-1.63.64c-1.39 0-1.49-.95-1.49-1.83ZM105.54 166.5h.89v.5a2.63 2.63 0 0 1 1.53-.65 1.26 1.26 0 0 1 1.29.7 2.76 2.76 0 0 1 1.67-.7c1.42 0 1.48 1 1.48 1.81v3h-.9v-2.87c0-.69-.12-1.15-.85-1.15a2.45 2.45 0 0 0-1.28.48 3.15 3.15 0 0 1 0 .53v3h-.89v-2.87c0-.71-.1-1.15-.84-1.15a2.63 2.63 0 0 0-1.25.49v3.53h-.89ZM26.86 174.42h1.21l2.89 5.1V174.42h.94v6.08h-1.3l-2.83-5v5.01h-.92ZM33.25 178.21a2.24 2.24 0 0 1 2.25-2.53c1.48 0 2.19.92 2.19 2.47a2.18 2.18 0 0 1-2.25 2.46 2.11 2.11 0 0 1-2.19-2.4Zm3.52-.06c0-.83-.24-1.74-1.29-1.74s-1.31.9-1.31 1.75.32 1.71 1.32 1.71 1.28-.82 1.28-1.72ZM38.63 178.21a2.24 2.24 0 0 1 2.25-2.53c1.48 0 2.18.92 2.18 2.47a2.17 2.17 0 0 1-2.24 2.46 2.11 2.11 0 0 1-2.19-2.4Zm3.52-.06c0-.83-.25-1.74-1.3-1.74s-1.31.9-1.31 1.75.32 1.71 1.33 1.71 1.28-.82 1.28-1.72ZM44.31 175.8h.9v.63a1.61 1.61 0 0 1 1.31-.73 1.73 1.73 0 0 1 .57.08l-.13.76a1.91 1.91 0 0 0-.58-.06 1.49 1.49 0 0 0-1.17.65v3.37h-.9ZM47.36 178.14a2.24 2.24 0 0 1 2.32-2.46 2.62 2.62 0 0 1 .85.11V174h.89v6.49h-.89v-.42a1.68 1.68 0 0 1-1.16.5c-.87.01-2.01-.36-2.01-2.43Zm3.17 1.27v-2.87a2.57 2.57 0 0 0-.84-.13c-1 0-1.43.82-1.43 1.76 0 1.2.53 1.66 1.23 1.66a2.16 2.16 0 0 0 1.04-.42ZM52.53 177.66h2.56v.75h-2.56ZM56.35 174.42h.92v2.66h3.12v-2.66h.92v6.08h-.92v-2.68h-3.12v2.68h-.92ZM62.7 178.21a2.24 2.24 0 0 1 2.3-2.53c1.48 0 2.18.92 2.18 2.47a2.17 2.17 0 0 1-2.24 2.46 2.11 2.11 0 0 1-2.24-2.4Zm3.52-.06c0-.83-.25-1.74-1.3-1.74s-1.31.9-1.31 1.75.32 1.71 1.33 1.71 1.28-.82 1.28-1.72ZM68.39 174h.89v6.49h-.89ZM70.85 174h.9v6.49h-.9ZM72.93 179.22c0-1.16 1-1.41 1.87-1.42h1v-.52c0-.66-.34-.79-1.1-.79a5.48 5.48 0 0 0-1.24.21l-.18-.68a4.34 4.34 0 0 1 1.62-.31c1.16 0 1.78.36 1.78 1.33v2.46c0 .29.21.35.43.37v.7h-.19c-.44 0-.93-.15-1-.56a2.49 2.49 0 0 1-1.55.58 1.25 1.25 0 0 1-1.44-1.37Zm2.9.22v-1.08h-1c-.65 0-1 .31-1 .74s.31.72.76.72a3.27 3.27 0 0 0 1.24-.38ZM78.46 175.8h.89v.52a2.84 2.84 0 0 1 1.61-.64c1.41 0 1.5.93 1.5 1.82v3h-.89v-2.87c0-.77-.12-1.16-.88-1.16a2.8 2.8 0 0 0-1.34.49v3.54h-.89ZM83.67 178.14a2.24 2.24 0 0 1 2.33-2.46 2.52 2.52 0 0 1 .84.11V174h.9v6.49h-.9v-.42a1.67 1.67 0 0 1-1.15.5c-.89.01-2.02-.36-2.02-2.43Zm3.16 1.27v-2.87a2.5 2.5 0 0 0-.83-.13c-1 0-1.43.82-1.43 1.76 0 1.2.52 1.66 1.23 1.66a2.08 2.08 0 0 0 1.03-.42Z" fill="#fff"/></svg>