<?xml version="1.0" encoding="utf-8"?>
<!-- Generator: Adobe Illustrator 26.0.3, SVG Export Plug-In . SVG Version: 6.00 Build 0)  -->
<svg version="1.1" id="Laag_1" xmlns="http://www.w3.org/2000/svg" xmlns:xlink="http://www.w3.org/1999/xlink" x="0px" y="0px"
	 viewBox="0 0 136.1 249.4" style="enable-background:new 0 0 136.1 249.4;" xml:space="preserve">
<style type="text/css">
	.st0{fill:#2891E1;}
	.st1{fill:#E61432;}
	.st2{fill:#FFFFFF;}
	.st3{fill-rule:evenodd;clip-rule:evenodd;fill:#FFFFFF;}
</style>
<path class="st0" d="M0,206.9h136.1v42.5H0V206.9z M0,0h136.1v204.1H0V0z"/>
<path class="st1" d="M0,204.1h136.1v2.8H0V204.1z"/>
<path class="st2" d="M110.8,143.1c-1.7-0.5-2-2.2-2.2-4.9l-0.5-25.4V96.6c0-15.8-0.3-27.5-28.7-27.5c-13.2,0-21.8,5.8-27.7,10.3
	V42.6c0-3.5-1.5-5.4-6-5.4c-10.4,0.1-20.8,1.2-31,3.2v11.4h12v53.7h25.6v-16c4.6-1.7,12.3-2.6,18.9-2.6c11.1,0,11.2,8.8,11.2,18v8
	l-0.3,24.8c0,2.3-0.3,4.3-2.9,5.5l-5.4,2.4c-0.3,3.1-0.1,6.3,0.6,9.4h43.8c0.9-2.5,1.2-3.7,1.2-9.4L110.8,143.1z M26.7,116.5H29v3.9
	h4.1v-3.9h2.3v9.6h-2.3v-4H29v4h-2.3V116.5z"/>
<path class="st2" d="M37.6,122.2v-5.7h2.3v5.6c0,1.5,0.7,2.3,2.1,2.3s2.1-0.8,2.1-2.6v-5.3h2.3v5.4c0,3.4-2.3,4.4-4.4,4.4
	S37.6,125.3,37.6,122.2z M48.7,116.5H51v9.6h-2.3V116.5z M52.6,125.5l0.7-1.7c0.8,0.3,1.7,0.5,2.5,0.4c1.2,0,1.7-0.3,1.7-0.9
	c0-1.6-4.6-1.1-4.6-4.4c0-1.8,1.8-2.7,3.5-2.7c1,0,2.1,0.2,3,0.7l-0.7,1.6c-0.7-0.3-1.5-0.4-2.3-0.4c-1,0-1.3,0.4-1.3,0.8
	c0,1.3,4.7,1.3,4.7,4.3c0,2.1-2,2.9-4,2.9C54.7,126.3,53.6,126,52.6,125.5L52.6,125.5z M25.7,130.9h2.4l2.4,7.9l2.8-7.9h2.3
	l-3.7,9.6h-3L25.7,130.9z M38.9,130.9h3l3.2,9.6h-2.4l-0.9-2.8h-3.3l-1,2.8h-2.3L38.9,130.9z M41.3,136l-1-3.7l-1.1,3.7H41.3z
	 M46.5,130.9h2.7l3.8,6.6l-0.1-1.1v-5.5h2.3v9.6h-2.8l-3.7-6.4l0.1,1.3v5.1h-2.3V130.9z M26.7,145.4H29v3.9h4.1v-3.9h2.3v9.6h-2.3
	v-4H29v4h-2.3V145.4z M37.7,145.4H40v9.6h-2.3V145.4z M42.2,145.4h2.3v7.8h4.2v1.9h-6.5V145.4z M50.2,145.4h3.4
	c3.3,0,5.6,1.4,5.6,4.8s-2.1,4.9-5.5,4.9h-3.5V145.4z M53.8,153.2c2.2,0,3.1-1,3.1-2.9c0-2.1-1-3.1-3.3-3.1h-1.1v6H53.8z M61,145.4
	h6.3v1.8h-4v2.1H67v1.7h-3.7v2.2h4.3v1.8H61V145.4z"/>
<path class="st3" d="M59.5,233.6h0.8V230v-0.6l2.3,4.1h1v-5h-0.8v3.6v0.6l-2.4-4.2h-1v5.1H59.5z M66.5,233.6c1,0,1.8-0.7,1.8-1.7
	c0-0.1,0-0.2,0-0.3c0-1.3-0.6-2-1.8-2c-1,0-1.8,0.8-1.8,1.8c0,0.1,0,0.1,0,0.2c-0.2,0.9,0.5,1.8,1.4,2
	C66.3,233.6,66.4,233.6,66.5,233.6z M66.5,233c-0.8,0-1.1-0.6-1.1-1.4s0.2-1.4,1.1-1.4s1.1,0.7,1.1,1.4S67.4,233,66.5,233L66.5,233z
	 M70.9,233.6c1,0,1.8-0.7,1.8-1.7c0-0.1,0-0.2,0-0.3c0-1.3-0.6-2-1.8-2c-1,0-1.8,0.8-1.8,1.8c0,0.1,0,0.1,0,0.2
	c-0.2,0.9,0.5,1.8,1.4,2C70.7,233.6,70.8,233.6,70.9,233.6z M70.9,233c-0.8,0-1.1-0.6-1.1-1.4s0.2-1.4,1.1-1.4s1.1,0.8,1.1,1.4
	S71.8,233,70.9,233L70.9,233z M73.8,233.6h0.7v-2.8c0.2-0.3,0.6-0.5,1-0.5c0.2,0,0.3,0,0.5,0l0.1-0.6c-0.2,0-0.3-0.1-0.5-0.1
	c-0.4,0-0.8,0.2-1.1,0.6v-0.5h-0.7V233.6z M78.1,233.6c0.4,0,0.7-0.1,1-0.4v0.3h0.7v-5.3H79v1.4c-0.2-0.1-0.5-0.1-0.7-0.1
	c-1,0-1.9,0.7-1.9,1.8c0,0.1,0,0.2,0,0.2C76.4,233.3,77.3,233.6,78.1,233.6L78.1,233.6z M78.2,233c-0.6,0-1-0.4-1-1.4
	c0-0.8,0.3-1.4,1.2-1.4c0.2,0,0.5,0,0.7,0.1v2.4C78.8,232.8,78.5,233,78.2,233z"/>
<path class="st2" d="M80.6,231.2h2.1v0.6h-2.1V231.2z"/>
<path class="st3" d="M83.8,233.6h0.8v-2.2h2.5v2.2h0.8v-5h-0.8v2.2h-2.5v-2.2h-0.8V233.6z M90.7,233.6c1,0,1.8-0.7,1.8-1.7
	c0-0.1,0-0.2,0-0.3c0-1.3-0.6-2-1.8-2c-1,0-1.8,0.8-1.8,1.8c0,0.1,0,0.1,0,0.2c-0.2,0.9,0.5,1.8,1.4,2
	C90.5,233.6,90.6,233.6,90.7,233.6z M90.7,233c-0.8,0-1.1-0.6-1.1-1.4s0.2-1.4,1.1-1.4s1.1,0.7,1.1,1.4S91.6,233,90.7,233L90.7,233z
	"/>
<path class="st2" d="M93.6,228.3h0.7v5.3h-0.7V228.3z M95.6,228.3h0.7v5.3h-0.7V228.3z"/>
<path class="st3" d="M98.4,233.6c0.5,0,0.9-0.2,1.3-0.5c0.1,0.3,0.5,0.5,0.8,0.5h0.2V233c-0.2,0-0.3-0.1-0.3-0.3v-2
	c0-0.8-0.5-1.1-1.4-1.1c-0.5,0-0.9,0.1-1.3,0.2l0.2,0.6c0.3-0.1,0.7-0.1,1-0.2c0.6,0,0.9,0.1,0.9,0.6v0.4H99c-0.7,0-1.5,0.2-1.5,1.1
	c-0.1,0.5,0.3,1.1,0.8,1.1C98.2,233.6,98.3,233.6,98.4,233.6L98.4,233.6z M98.6,233c-0.4,0-0.6-0.1-0.6-0.6s0.3-0.6,0.8-0.6h0.8v0.9
	C99.3,232.9,99,233,98.6,233L98.6,233z M101.8,233.6h0.7v-2.9c0.3-0.2,0.7-0.4,1.1-0.4c0.6,0,0.7,0.3,0.7,1v2.3h0.7v-2.5
	c0-0.7-0.1-1.5-1.2-1.5c-0.5,0-0.9,0.2-1.3,0.5v-0.4h-0.7C101.8,229.7,101.8,233.6,101.8,233.6z M107.7,233.6c0.4,0,0.7-0.2,0.9-0.4
	v0.3h0.7v-5.3h-0.7v1.4c-0.2-0.1-0.5-0.1-0.7-0.1c-1,0-1.9,0.7-1.9,1.7c0,0.1,0,0.2,0,0.3C106.1,233.3,107,233.6,107.7,233.6
	L107.7,233.6z M107.8,233c-0.6,0-1-0.4-1-1.4c0-0.8,0.3-1.4,1.2-1.4c0.2,0,0.5,0,0.7,0.1v2.4C108.4,232.8,108.1,233,107.8,233z
	 M59.5,226.5h0.8v-4.4h0.8c0.7,0,1.1,0.4,1.1,1s-0.5,1-1.2,1h-0.3v0.6H61c1.4,0,2.1-0.8,2.1-1.7c0.1-0.8-0.6-1.6-1.4-1.6
	c-0.1,0-0.2,0-0.3,0h-1.7v5.1H59.5z M63.7,226.5h0.7v-2.8c0.2-0.3,0.6-0.5,1-0.5c0.2,0,0.3,0,0.5,0.1l0.1-0.6
	c-0.2,0-0.3-0.1-0.5-0.1c-0.4,0-0.8,0.2-1.1,0.6v-0.5h-0.7V226.5z M68.2,226.6c1,0,1.8-0.7,1.8-1.7c0-0.1,0-0.2,0-0.3
	c0-1.3-0.6-2-1.8-2c-1,0-1.8,0.8-1.8,1.8c0,0.1,0,0.2,0,0.3c-0.1,0.9,0.5,1.8,1.5,1.9C68,226.6,68.1,226.6,68.2,226.6z M68.2,226
	c-0.8,0-1.1-0.6-1.1-1.4s0.2-1.4,1.1-1.4s1.1,0.8,1.1,1.4S69,226,68.2,226L68.2,226z M71.8,226.5h1l1.4-3.8h-0.8l-0.8,2.5l-0.3,0.8
	l-0.2-0.8l-0.8-2.5h-0.8C70.5,222.7,71.8,226.5,71.8,226.5z M75,226.5h0.7v-3.8H75V226.5z M75.4,222.1l0.6-0.6l-0.6-0.6l-0.6,0.6
	L75.4,222.1z M77,226.5h0.7v-2.9c0.3-0.2,0.7-0.4,1.1-0.4c0.6,0,0.7,0.3,0.7,0.9v2.3h0.7V224c0-0.7-0.1-1.5-1.2-1.5
	c-0.5,0-0.9,0.2-1.3,0.5v-0.4H77V226.5z M83.3,226.6c0.3,0,0.6,0,0.9-0.1l-0.1-0.6c-0.2,0.1-0.5,0.1-0.8,0.1c-1,0-1.3-0.4-1.3-1.4
	s0.5-1.4,1.1-1.4c0.3,0,0.6,0.1,0.9,0.2l0.2-0.6c-0.3-0.2-0.7-0.3-1.1-0.2c-1,0-1.9,0.7-1.9,1.7c0,0.1,0,0.2,0,0.3
	C81.2,226,81.8,226.6,83.3,226.6z M85.1,226.5h0.7v-3.8h-0.7V226.5z M85.5,222.1l0.6-0.6l-0.6-0.6l-0.6,0.6L85.5,222.1z M88.8,226.6
	c0.4,0,0.9-0.1,1.3-0.2l-0.1-0.6c-0.3,0.1-0.7,0.1-1,0.2c-0.7,0-1.3-0.2-1.3-1.2h2.5v-0.3c0-1.2-0.4-1.9-1.5-1.9s-1.8,0.5-1.8,2.1
	S87.6,226.6,88.8,226.6L88.8,226.6z M87.6,224.3c0-0.8,0.4-1.1,1-1.1s0.8,0.5,0.8,1.1H87.6z"/>
<path class="st2" d="M42.2,222.3h1.2v0.4h-1.2V222.3z M45,222.3h1.3v0.4H45V222.3z M42.2,227.3h1.2v0.5h-1.2V227.3z M45,227.3h1.3
	v0.5H45V227.3z M42,232.4h1.3v0.5H42V232.4z M42.6,225c-0.1-0.1-0.1-0.2-0.1-0.3c0-0.2-0.1-0.3-0.2-0.5c-0.1,0.1-0.3,0.1-0.4,0
	c0.1-0.1,0.2-0.2,0.2-0.3c-0.1,0-0.2-0.1-0.3-0.2c0.1-0.1,0.2-0.2,0.3-0.2c-0.1-0.1-0.2-0.2-0.2-0.3c0.4-0.1,0.5,0.1,0.6,0.4
	c0,0.1,0.1,0.1,0.1,0.2l0.2,0.2v0.2C42.8,224.6,42.7,224.8,42.6,225z M45,226.6c-0.2,0.1-0.3,0.2-0.5,0.3c0,0.1-0.1,0.2-0.2,0.2
	c0-0.1-0.1-0.2-0.2-0.3c0,0.1-0.1,0.3-0.2,0.4c-0.1-0.1-0.2-0.2-0.1-0.3c-0.1,0.1-0.2,0.1-0.3,0.1c-0.1-0.5,0.3-0.6,0.7-0.5
	c0.1,0,0.2-0.1,0.2-0.1c-0.1-0.1-0.1-0.2-0.1-0.4c0.2-0.1,0.5-0.4,0.7-0.4c0,0.1,0.1,0.3,0.2,0.4C45,226.1,44.9,226.4,45,226.6
	L45,226.6z"/>
<path class="st3" d="M36.3,230.8c0-0.1,0.1-0.4,0.3-0.5c0.1-0.1,0.2-0.2,0.3-0.2c-0.1,0-0.1-0.1-0.2-0.1c-0.1-0.1-0.3-0.1-0.4-0.2
	c0.1-0.1,0.3-0.2,0.5-0.1c0.1,0,0.1,0,0.2,0c0.2,0,0.4,0.1,0.5,0.3c0,0.1,0.1,0.2,0.2,0.2s0.3-0.2,0.4-0.3c-0.3-0.3-0.6-0.7-0.6-1.1
	c0.4-0.5,1-0.7,1.6-0.4c0.1,0.1,0.1,0.1,0.2,0.2c-0.4,0.5-0.6,1.1-0.4,1.7c-0.3,0.2-0.5,0.4-0.7,0.6c-0.2-0.1-0.2-0.1-0.3,0
	c0,0.2-0.1,0.3-0.2,0.4c0,0.3-0.5,0.3-0.5,0.3c0.1-0.1,0.2-0.3,0.2-0.4c-0.1-0.2-0.1-0.3,0-0.5c-0.1,0-0.3,0-0.4,0
	C36.5,230.6,36.4,230.7,36.3,230.8z M39.6,232.8c-0.1-0.2-0.2-0.4-0.1-0.6c0-0.1,0-0.2,0.1-0.3c-0.1,0.1-0.2,0.1-0.3,0.1
	c-0.2,0-0.3,0-0.5,0.1c0-0.2,0.1-0.3,0.3-0.4c0.1-0.3,0.3-0.3,0.7-0.2c0.1,0,0.1,0,0.2,0c0.1,0,0.2-0.1,0.2-0.3s-0.1-0.4-0.1-0.6
	c-0.3,0.1-0.7-0.1-1,0.1c-0.5-0.7-0.4-1.6,0.2-2.3c-0.1-0.2-0.2-0.3-0.3-0.4c-0.2-0.2-0.3-0.3-0.4-0.5c0.1-0.4,0.6-0.8,1.1-1.1
	c-0.2,0.4-0.1,0.9,0.2,1.3c0.1,0.2,0.2,0.4,0.3,0.5s0.1,0.3,0.1,0.4c0.1,0.1,0.3,0.4,0.4,0.4s0.2-0.1,0.2-0.2c0-0.7-1-1.1-1-2
	c0-0.6,0.4-0.9,0.7-0.9c0.2,0,0.4,0.1,0.4,0.3v0.1c0.2,0.1,0.2,0.4,0.1,0.6c-0.1,0.3-0.1,0.6,0.1,0.9c-0.1,0-0.5-0.4-0.6-0.8
	s-0.2-0.7,0.1-0.7c0-0.1-0.1-0.2-0.2-0.2l0,0c-0.2,0-0.4,0.2-0.4,0.6c0,0.7,1,1.2,1,2c0,0.3-0.2,0.6-0.5,0.6l0,0
	c-0.2,0-0.4-0.1-0.5-0.3c0,0.5,0.4,0.7,0.8,0.7c-0.1,0.6-0.1,1.1,0.1,1.7c-0.2,0.1-0.4,0.2-0.4,0.4c0.1,0.1,0.1,0.2,0.1,0.4
	c0.1,0.2,0,0.4-0.1,0.6c0-0.2-0.1-0.3-0.2-0.5c-0.1-0.1-0.2-0.2-0.2-0.4c-0.1,0.1-0.2,0.2-0.3,0.3C39.6,232.4,39.6,232.7,39.6,232.8
	L39.6,232.8z M36.6,227.9c0.1,0,0.2-0.1,0.3-0.2c0-0.1,0.1-0.3,0.2-0.3c-0.1,0-0.2,0-0.3-0.1c-0.2-0.1-0.4,0.1-0.5,0.1
	c0-0.2,0.2-0.3,0.3-0.4c0.1-0.1,0.2-0.1,0.3-0.1c-0.1-0.1-0.2-0.1-0.3-0.3c-0.1-0.1-0.3-0.1-0.4-0.1c0.1-0.1,0.3-0.2,0.5-0.2
	c0.2-0.1,0.4,0,0.5,0.2s0.2,0.2,0.3,0.2s0.2-0.1,0.4-0.3c-0.1-0.5,0.2-1,0.6-1.3c0.3-0.2,1-0.4,1-0.5c-0.2,0-0.4,0-0.5-0.1
	s-0.1-0.1,0-0.2c0.3,0.1,0.5,0.1,0.6,0c-0.1-0.1-0.3-0.1-0.4-0.1c-0.2,0-0.4,0.1-0.7,0.1c-0.2,0-0.3-0.1-0.4-0.2
	c-0.1-0.2,0-0.3,0.1-0.4l0,0c-0.1,0.2,0,0.4,0.2,0.4c0,0,0.1,0,0.2,0h0.5c0.2,0,0.3,0.1,0.5,0.2c0-0.1,0-0.2,0-0.3
	c-0.2-0.1-0.5,0-0.7,0.1c-0.1-0.2-0.1-0.4-0.2-0.6c0.2-0.4,1.6-0.8,1.9-0.9c0,0.1,0,0.3-0.1,0.4c0.2-0.1,0.4-0.1,0.5,0
	c0,0.3-0.1,0.5-0.2,0.7c0.2,0.2,0.2,0.5,0.2,0.7c-0.1,0.4-0.2,0.9-0.3,1.3c0,0.1,0,0.3,0,0.4c-0.2-0.1-0.3-0.2-0.3-0.4
	c-0.2,0.3-0.4,0.6-0.7,0.8c-0.6,0.4-1.3,0.9-1.2,1.4c-0.1-0.1-0.2-0.3-0.3-0.5c-0.4,0.3-0.4,0.2-0.5,0.7c0-0.1-0.1-0.2-0.2-0.2
	c0,0.1-0.1,0.2-0.3,0.3C36.7,228.1,36.5,227.9,36.6,227.9L36.6,227.9z M36.3,223.4c0.1-0.1,0.3-0.2,0.5-0.1c0.1,0,0.2,0,0.3,0.1
	c-0.1-0.1-0.1-0.3-0.1-0.4c0-0.1-0.2-0.2-0.2-0.4c0.2,0,0.4,0,0.5,0.1c0.2,0,0.4,0.1,0.3,0.5c-0.1,0.2-0.1,0.4,0.1,0.6
	c0.2,0.3,0.5,0.6,0.7,0.9h-0.1c-0.3,0.2-0.5,0.5-0.6,0.9c-0.1-0.3-0.2-0.8-0.5-0.9c0.2-0.2,0-0.5,0-0.5c-0.1,0.1-0.3,0.1-0.4,0.1
	c-0.5,0.1-0.5-0.2-0.4-0.2s0.3-0.1,0.3-0.1c0.1-0.1,0.2-0.2,0.3-0.2c-0.1-0.1-0.2-0.1-0.2-0.2C36.5,223.4,36.4,223.5,36.3,223.4
	L36.3,223.4z M47.2,233.3v-3.8h3.7v3.8h4.9v-11.5h-4.9v3.8h-3.7v-3.8h-5.7v11.5H47.2z M31.9,233.6h-5.2v-12h5.7l3.2,6v-6h11.9v3.8
	h3.2v-3.8H56v12h-5.4v-3.8h-3.2v3.8H35l-3.1-5.8V233.6z"/>
<path class="st2" d="M44.9,231.6c-0.1,0.1-0.2,0.2-0.4,0.3c0,0.1,0,0.2-0.1,0.3c-0.1-0.1-0.1-0.2-0.2-0.3c0,0.1-0.1,0.3-0.2,0.4
	c-0.1-0.1-0.2-0.2-0.1-0.3c-0.1,0.1-0.2,0.1-0.3,0.2c-0.1-0.4,0.3-0.6,0.7-0.5c0.1,0,0.1-0.1,0.2-0.1c-0.1-0.1-0.2-0.3-0.1-0.4
	c0.2-0.1,0.5-0.4,0.7-0.4c0,0.1,0,0.3,0,0.4C44.8,231.2,44.8,231.4,44.9,231.6z M42.5,230.1c-0.1-0.1-0.1-0.2-0.1-0.3
	c0-0.2-0.1-0.3-0.2-0.5c-0.1,0.1-0.3,0.1-0.4,0c0.1-0.1,0.2-0.2,0.2-0.3c-0.1,0-0.2-0.1-0.3-0.1c0.1-0.1,0.2-0.2,0.3-0.2
	c-0.1-0.1-0.2-0.2-0.2-0.3c0.3-0.2,0.6,0.1,0.6,0.5c0,0,0,0.1,0.1,0.1l0.2,0.2C42.7,229.5,42.7,229.8,42.5,230.1z"/>
<path class="st2" d="M45.2,230.4c-0.5,0-0.9,0.6-1.4,0.4c0.4-0.3,0.7-0.6,0.8-1.1c0.1,0,0.3,0,0.4,0c0.2-0.1,0.5,0,0.7,0.1
	c0.3,0.1,0.5-0.1,0.5-0.3s-0.1-0.2-0.2-0.2c-0.3,0-0.6,0.1-0.9,0.1c-0.3,0-0.6-0.2-0.6-0.5c0,0,0,0,0-0.1c0-0.3,0.2-0.6,0.6-0.6
	c0.1,0,0.1,0,0.2,0c0.1-0.3,0.4,0,0.8,0c0.2,0,0.4-0.1,0.5-0.2c0,0.2-0.2,0.4-0.5,0.5s-0.9,0.2-0.9-0.1c-0.2,0-0.3,0-0.4,0.2v0.1
	c0,0.2,0.1,0.3,0.3,0.3l0,0c0.3,0,0.5-0.1,0.9-0.1c0.3,0,0.5,0.2,0.5,0.4c0,0,0,0,0,0.1c0,0.4-0.4,0.6-0.7,0.6
	c0,0.3,0.2,0.4,0.4,0.4c0,0.3-0.1,0.6-0.2,0.9c0.1,0.1,0.1,0.2,0.1,0.4c-0.1,0-0.2-0.1-0.3-0.1c0,0.2-0.1,0.3-0.3,0.4
	c-0.1,0-0.1-0.1-0.2-0.2c-0.1,0.1-0.2,0.1-0.3,0.1c-0.1-0.4,0.2-0.6,0.5-0.6c0.1-0.1,0.1-0.3,0.1-0.4c-0.2,0-0.3,0.1-0.4,0.3
	c-0.1-0.1-0.2-0.3-0.1-0.5C45.2,230.6,45.2,230.5,45.2,230.4L45.2,230.4z"/>
<path class="st3" d="M43.3,223.4c0,0.1,0.2,0.2,0.3,0.3s0-0.2,0-0.2C43.4,223.5,43.3,223.4,43.3,223.4z M43.5,224.3
	c-0.1,0-0.1-0.2-0.1-0.3s0.1,0,0.2,0c0-0.1-0.1-0.1-0.1-0.2v-0.1c0.1,0,0.2,0,0.3,0c0,0,0,0,0,0.1c-0.1,0-0.2,0.1-0.2,0.2
	s0.2,0,0.2,0s0,0.2-0.1,0.3c0,0.2,0,0.3-0.1,0.4C43.5,224.6,43.5,224.4,43.5,224.3L43.5,224.3z M44.1,223.4c0,0.1-0.2,0.2-0.3,0.3
	s0-0.2,0-0.2S44,223.4,44.1,223.4z M42.8,225.5c-0.2,0.1-0.5,0.1-0.5-0.1c0.5-0.1,0.6-0.5,0.6-0.9c0-0.2,0.1-0.5,0.1-0.7
	c0-0.1,0-0.3,0.1-0.4c-0.1-0.1-0.1-0.3-0.1-0.4c0.2,0,0.3,0.1,0.4,0.2c0.2,0,0.3,0,0.5,0c0.1-0.1,0.3-0.2,0.5-0.1
	c-0.1,0.1-0.1,0.3-0.2,0.4c0.1,0.4,0.1,0.8,0.2,1.2c-0.1,0.5-0.4,0.9-0.8,1.1c0,0.1,0,0.1,0,0.2c-0.1,0.1-0.2,0.3-0.4,0.4
	c-0.2,0.1-0.3,0.3-0.4,0.5c0.1,0.2,0,0.3-0.2,0.4c0,0,0,0-0.1,0c0-0.1,0-0.3-0.1-0.3c-0.1,0.1-0.2,0.2-0.3,0.2c0-0.1,0-0.2,0-0.4
	c-0.1,0-0.2,0-0.3,0c0.1-0.4,0.3-0.4,0.6-0.4h0.1C42.7,226,42.8,225.8,42.8,225.5L42.8,225.5z"/>
<path class="st2" d="M45.2,225.3c-0.5,0-0.9,0.6-1.4,0.4c0.4-0.2,0.7-0.6,0.8-1.1c0.1,0,0.3,0,0.5,0c0.2-0.1,0.5,0,0.7,0.1
	c0.3,0,0.5-0.1,0.5-0.3s-0.1-0.2-0.3-0.2c-0.3,0-0.6,0.1-0.9,0.1c-0.3,0-0.5-0.3-0.5-0.7c0-0.3,0.3-0.5,0.7-0.5c0.1-0.3,0.4,0,0.8,0
	c0.2,0,0.4-0.1,0.5-0.2c0,0.2-0.2,0.4-0.5,0.5s-0.9,0.2-0.9-0.1c-0.2,0-0.3,0.1-0.4,0.2s0.1,0.3,0.2,0.4l0,0c0.3,0,0.5-0.1,0.9-0.1
	c0.3,0,0.5,0.2,0.5,0.4v0.1c0,0.3-0.3,0.6-0.6,0.6c0,0.3,0.5,0.4,0.8,0.4c0,0.3-0.1,0.6-0.2,0.9c0.1,0.1,0.1,0.2,0.1,0.4
	c-0.1,0-0.2-0.1-0.3-0.1c0,0.2-0.1,0.3-0.3,0.4c-0.1,0-0.1-0.1-0.2-0.2c-0.1,0.1-0.2,0.1-0.3,0.1c-0.1-0.2,0.1-0.5,0.3-0.6
	c0.1,0,0.1,0,0.2,0c0-0.1,0.2-0.3,0.2-0.4c-0.2,0-0.3,0.1-0.4,0.2C45.4,225.9,45.3,225.7,45.2,225.3L45.2,225.3z"/>
<path class="st3" d="M39.7,222.9c-0.2,0.1-0.4,0.1-0.6,0.2c0.1,0.1,0.3,0.1,0.4,0.1C39.7,223.2,39.7,223,39.7,222.9z"/>
<path class="st2" d="M38.7,219.9c0,0-0.7-0.6-0.7-0.9c0.1-0.6,0.3-1.1,0.7-1.6c0.6,0.4,1,0.9,1.3,1.4c0.1,0.3-0.4,1-0.4,1h1.6
	c0,0-0.7-0.6-0.7-1s0.5-1,1-1.5c0.5,0.5,1,1.1,1,1.5s-0.7,1-0.7,1h1.6c0,0-0.5-0.7-0.4-1c0.3-0.6,0.7-1.1,1.3-1.4
	c0.4,0.4,0.6,1,0.7,1.6c-0.1,0.3-0.7,0.9-0.7,0.9h1.5c-0.1-0.2-0.4-0.7-0.2-1.1s1.4-1.4,1.8-1.4c-0.5,0.7-1,1.6-1.2,2.5
	c0.2,0.3,0.2,0.7,0,1h-9.3c-0.2-0.3-0.2-0.7,0-1c-0.3-0.9-0.7-1.7-1.2-2.5c0.4-0.1,1.5,0.8,1.8,1.4s-0.1,0.9-0.2,1.1H38.7z"/>
<path class="st3" d="M43.3,228.5c0,0.1,0.2,0.3,0.2,0.3c0-0.1,0-0.1,0-0.2C43.5,228.6,43.4,228.5,43.3,228.5z M43.5,229.4
	c-0.1-0.1-0.1-0.2-0.1-0.3s0.1,0.1,0.2,0.1c0-0.1,0-0.2-0.1-0.2v-0.1c0.1,0,0.2,0.1,0.3,0.1c0,0,0,0,0,0.1c-0.1,0-0.2,0.1-0.2,0.1
	h0.2c0,0,0,0.2-0.2,0.2c-0.1,0.2,0,0.3,0,0.4C43.5,229.7,43.4,229.5,43.5,229.4z M44.1,228.6c0,0.1-0.2,0.2-0.3,0.2s0-0.2,0-0.2
	C43.9,228.6,44,228.6,44.1,228.6z M42.9,230.6c-0.2,0.1-0.4,0.1-0.6-0.1l0,0c0.8-0.1,0.6-1.1,0.7-1.7c0-0.1,0.1-0.3,0.1-0.4
	c-0.1-0.1,0-0.4,0-0.4c0.2,0,0.3,0.1,0.4,0.2c0.2,0,0.3,0,0.5,0.1c0.1-0.1,0.3-0.1,0.5-0.1c-0.1,0.1-0.1,0.3-0.2,0.4
	c0.1,0.3,0.1,0.7,0.1,1c-0.1,0.5-0.4,0.9-0.8,1.1c0,0.1,0,0.1,0,0.2c-0.1,0.1-0.2,0.3-0.4,0.4c-0.2,0.1-0.3,0.3-0.4,0.5
	c0.1,0.2,0,0.4-0.2,0.4l0,0c0-0.1,0-0.3-0.1-0.3c-0.1,0.1-0.2,0.2-0.3,0.2c0-0.1,0-0.2,0-0.3c-0.1,0-0.2,0-0.3,0
	c0.1-0.4,0.3-0.4,0.6-0.4h0.1C42.7,231.1,42.8,230.8,42.9,230.6L42.9,230.6z"/>
<path class="st2" d="M28.5,165.1h1.2l2.2,6.1h-1l-0.7-2.1h-2.3l-0.8,2.1h-0.9L28.5,165.1z M29.9,168.4l-0.8-2.6l-1,2.6H29.9z
	 M32.8,166.5h0.9v0.6c0.3-0.5,0.8-0.7,1.3-0.7c0.2,0,0.4,0,0.6,0.1l-0.1,0.8c-0.2,0-0.4-0.1-0.6-0.1c-0.5,0-0.9,0.3-1.2,0.6v3.4
	h-0.9V166.5z M36,168.8c-0.1-1.2,0.8-2.3,2-2.5c0.1,0,0.2,0,0.3,0c0.5,0,0.9,0.1,1.3,0.3l-0.3,0.7c-0.3-0.2-0.7-0.2-1.1-0.2
	c-0.8,0-1.4,0.6-1.4,1.7s0.3,1.7,1.6,1.7c0.3,0,0.6-0.1,0.9-0.1l0.1,0.7c-0.4,0.1-0.7,0.2-1.1,0.2C36.7,171.3,36,170.6,36,168.8
	L36,168.8z M40.8,164.7h0.9v2.3c0.5-0.4,1-0.6,1.6-0.6c1.4,0,1.5,0.9,1.5,1.8v3h-0.9v-2.9c0-0.8-0.1-1.1-0.9-1.1
	c-0.5,0.1-0.9,0.2-1.3,0.5v3.5h-0.9C40.8,171.2,40.8,164.7,40.8,164.7z M46,168.9c0-1.9,0.9-2.6,2.2-2.6s1.8,0.9,1.8,2.4v0.3h-3.1
	c0,1.3,0.7,1.5,1.6,1.5c0.4,0,0.8-0.1,1.2-0.2l0.2,0.7c-0.5,0.2-1,0.2-1.6,0.2C46.9,171.3,46,170.8,46,168.9z M49,168.4
	c0-0.8-0.3-1.4-1-1.4s-1.1,0.5-1.2,1.4H49z M50.8,168.9c-0.2-1.2,0.7-2.4,1.9-2.5c0.1,0,0.2,0,0.3,0c1.5,0,2.2,0.9,2.2,2.5
	c0.2,1.2-0.7,2.3-1.9,2.4c-0.1,0-0.3,0-0.4,0c-1.2,0-2.1-0.9-2.2-2C50.8,169.1,50.8,169,50.8,168.9L50.8,168.9z M54.4,168.9
	c0-0.8-0.2-1.7-1.3-1.7s-1.3,0.9-1.3,1.8s0.3,1.7,1.3,1.7S54.4,169.8,54.4,168.9z M56.5,164.7h0.9v6.5h-0.9V164.7z M58.7,168.9
	c-0.2-1.2,0.7-2.4,1.9-2.5c0.1,0,0.2,0,0.3,0c1.5,0,2.2,0.9,2.2,2.5c0.2,1.2-0.7,2.3-1.9,2.4c-0.1,0-0.2,0-0.4,0
	c-1.2,0.1-2.2-0.8-2.2-2C58.7,169.2,58.7,169,58.7,168.9L58.7,168.9z M62.2,168.9c0-0.8-0.2-1.7-1.3-1.7s-1.3,0.9-1.3,1.8
	s0.3,1.7,1.3,1.7S62.2,169.8,62.2,168.9z M64.4,172.9l0.2-0.8c0.4,0.1,0.9,0.2,1.3,0.2c0.8,0,1.3-0.1,1.3-1.1v-0.4
	c-0.3,0.2-0.6,0.4-1,0.4c-1,0-2.2-0.3-2.2-2.4c-0.1-1.2,0.8-2.4,2-2.5c0.1,0,0.2,0,0.3,0c0.6,0,1.1,0.1,1.7,0.2v4.9
	c0,1.2-1,1.7-2,1.7C65.6,173.1,65,173.1,64.4,172.9z M67.2,170.2v-3c-0.3-0.1-0.5-0.1-0.8-0.1c-1,0-1.4,0.8-1.4,1.8
	c0,1.2,0.5,1.7,1.3,1.7C66.6,170.6,67,170.4,67.2,170.2L67.2,170.2z M69.5,165l0.7-0.7l0.7,0.7l-0.7,0.7L69.5,165z M69.7,166.5h0.9
	v4.7h-0.9V166.5z M71.9,168.9c0-1.9,0.9-2.6,2.2-2.6s1.8,0.9,1.8,2.4v0.3h-3.1c0,1.3,0.7,1.5,1.6,1.5c0.4,0,0.8-0.1,1.2-0.2l0.2,0.7
	c-0.5,0.2-1,0.2-1.6,0.2C72.8,171.3,71.9,170.8,71.9,168.9L71.9,168.9z M74.9,168.4c0-0.8-0.3-1.4-1-1.4s-1.1,0.5-1.2,1.4H74.9z
	 M77.1,166.5H78v0.5c0.4-0.4,1-0.6,1.5-0.6c0.5-0.1,1.1,0.2,1.3,0.7c0.5-0.4,1.1-0.7,1.7-0.7c1.4,0,1.5,1,1.5,1.8v3h-1v-2.9
	c0-0.7-0.1-1.1-0.9-1.1c-0.5,0-0.9,0.2-1.3,0.5c0,0.2,0,0.4,0,0.5v3H80v-2.9c0-0.7-0.1-1.1-0.8-1.1c-0.5,0-0.9,0.2-1.2,0.5v3.5h-1
	L77.1,166.5z M85.4,169.5v-3h0.9v2.8c0,0.7,0.1,1.2,0.8,1.2c0.5-0.1,1-0.2,1.4-0.5v-3.5h0.9v4.7h-0.9v-0.5c-0.5,0.4-1,0.6-1.6,0.6
	C85.5,171.3,85.4,170.4,85.4,169.5L85.4,169.5z M90.6,171.1l0.1-0.7c0.4,0.1,0.8,0.2,1.3,0.2c0.7,0,1.1-0.3,1.1-0.6
	c0-0.9-2.4-0.6-2.4-2.2c0-0.9,0.8-1.4,1.7-1.4c0.4,0,0.9,0.1,1.3,0.2l-0.2,0.7c-0.4-0.1-0.8-0.2-1.1-0.2c-0.6,0-0.8,0.3-0.8,0.6
	c0,0.9,2.3,0.7,2.3,2.2c0,1.1-1.1,1.4-1.9,1.4C91.6,171.3,91.1,171.2,90.6,171.1L90.6,171.1z M94.8,168.9c0-1.9,1-2.6,2.2-2.6
	s1.8,0.9,1.8,2.4v0.3h-3.1c0,1.3,0.7,1.5,1.6,1.5c0.4,0,0.8-0.1,1.2-0.2l0.2,0.7c-0.5,0.2-1,0.2-1.6,0.2
	C95.7,171.3,94.8,170.8,94.8,168.9L94.8,168.9z M97.8,168.4c0-0.8-0.3-1.4-1-1.4s-1.1,0.5-1.2,1.4H97.8z M100,169.5v-3h0.9v2.8
	c0,0.7,0.1,1.2,0.8,1.2c0.5-0.1,1-0.2,1.4-0.5v-3.5h0.9v4.7h-0.9v-0.5c-0.5,0.4-1,0.6-1.6,0.6C100.1,171.3,100,170.4,100,169.5
	L100,169.5z M105.5,166.5h0.9v0.5c0.4-0.4,1-0.6,1.5-0.6c0.5-0.1,1.1,0.2,1.3,0.7c0.5-0.4,1.1-0.7,1.7-0.7c1.4,0,1.5,1,1.5,1.8v3
	h-0.9v-2.9c0-0.7-0.1-1.1-0.8-1.1c-0.5,0-0.9,0.2-1.3,0.5c0,0.2,0,0.4,0,0.5v3h-0.9v-2.9c0-0.7-0.1-1.1-0.8-1.1
	c-0.5,0.1-0.9,0.2-1.2,0.5v3.5h-0.9L105.5,166.5z M26.9,174.4h1.2l2.9,5.1v-5.1h0.9v6.1h-1.3l-2.8-5v5h-0.9L26.9,174.4z M33.2,178.2
	c-0.2-1.2,0.7-2.4,1.9-2.5c0.1,0,0.2,0,0.3,0c1.5,0,2.2,0.9,2.2,2.5c0.2,1.2-0.7,2.3-1.9,2.4c-0.1,0-0.2,0-0.4,0
	c-1.2,0.1-2.2-0.8-2.2-2C33.2,178.5,33.2,178.3,33.2,178.2L33.2,178.2z M36.8,178.2c0-0.8-0.2-1.7-1.3-1.7s-1.3,0.9-1.3,1.8
	s0.3,1.7,1.3,1.7S36.8,179.1,36.8,178.2z M38.6,178.2c-0.2-1.2,0.7-2.4,1.9-2.5c0.1,0,0.2,0,0.3,0c1.5,0,2.2,0.9,2.2,2.5
	c0.2,1.2-0.7,2.3-1.9,2.4c-0.1,0-0.3,0-0.4,0c-1.2,0.1-2.2-0.8-2.2-2C38.6,178.5,38.6,178.3,38.6,178.2L38.6,178.2z M42.2,178.2
	c0-0.8-0.2-1.7-1.3-1.7s-1.3,0.9-1.3,1.8s0.3,1.7,1.3,1.7S42.2,179.1,42.2,178.2z M44.3,175.8h0.9v0.6c0.3-0.4,0.8-0.7,1.3-0.7
	c0.2,0,0.4,0,0.6,0.1l-0.1,0.8c-0.2,0-0.4-0.1-0.6-0.1c-0.5,0-0.9,0.3-1.2,0.6v3.4h-0.9V175.8z M47.4,178.1c-0.1-1.2,0.8-2.3,2-2.5
	c0.1,0,0.2,0,0.3,0c0.3,0,0.6,0,0.8,0.1V174h0.9v6.5h-0.9v-0.4c-0.3,0.3-0.7,0.5-1.2,0.5C48.5,180.6,47.4,180.2,47.4,178.1
	L47.4,178.1z M50.5,179.4v-2.9c-0.3-0.1-0.6-0.1-0.8-0.1c-1,0-1.4,0.8-1.4,1.8c0,1.2,0.5,1.7,1.2,1.7
	C49.9,179.8,50.2,179.6,50.5,179.4z M52.5,177.7h2.6v0.8h-2.6V177.7z M56.3,174.4h0.9v2.7h3.1v-2.7h0.9v6.1h-0.9v-2.7h-3.1v2.7h-0.9
	V174.4z M62.7,178.2c-0.2-1.2,0.7-2.4,1.9-2.5c0.1,0,0.2,0,0.4,0c1.5,0,2.2,0.9,2.2,2.5c0.2,1.2-0.7,2.3-1.9,2.4c-0.1,0-0.3,0-0.4,0
	c-1.2,0.1-2.2-0.8-2.3-2C62.7,178.5,62.7,178.4,62.7,178.2L62.7,178.2z M66.2,178.2c0-0.8-0.2-1.7-1.3-1.7s-1.3,0.9-1.3,1.8
	s0.3,1.7,1.3,1.7C65.9,179.9,66.2,179.1,66.2,178.2z M68.4,174h0.9v6.5h-0.9V174z M70.8,174h0.9v6.5h-0.9V174z M72.9,179.2
	c0-1.2,1-1.4,1.9-1.4h1v-0.5c0-0.7-0.3-0.8-1.1-0.8c-0.4,0-0.8,0.1-1.2,0.2l-0.2-0.7c0.5-0.2,1.1-0.3,1.6-0.3c1.2,0,1.8,0.4,1.8,1.3
	v2.5c0,0.3,0.2,0.4,0.4,0.4v0.7h-0.2c-0.4,0-0.9-0.1-1-0.6c-0.4,0.4-1,0.6-1.6,0.6c-0.7,0.1-1.3-0.4-1.4-1
	C72.9,179.4,72.9,179.3,72.9,179.2L72.9,179.2z M75.8,179.4v-1.1h-1c-0.7,0-1,0.3-1,0.7s0.3,0.7,0.8,0.7
	C75,179.8,75.4,179.6,75.8,179.4z M78.5,175.8h0.9v0.5c0.5-0.4,1-0.6,1.6-0.6c1.4,0,1.5,0.9,1.5,1.8v3h-0.9v-2.9
	c0-0.8-0.1-1.2-0.9-1.2c-0.5,0-0.9,0.2-1.3,0.5v3.5h-0.9L78.5,175.8z M83.7,178.1c-0.1-1.2,0.8-2.3,2-2.5c0.1,0,0.2,0,0.3,0
	c0.3,0,0.6,0,0.8,0.1V174h0.9v6.5h-0.9v-0.4c-0.3,0.3-0.7,0.5-1.2,0.5C84.8,180.6,83.7,180.2,83.7,178.1L83.7,178.1z M86.8,179.4
	v-2.9c-0.3-0.1-0.5-0.1-0.8-0.1c-1,0-1.4,0.8-1.4,1.8c0,1.2,0.5,1.7,1.2,1.7C86.2,179.8,86.5,179.6,86.8,179.4z"/>
</svg>
