<svg xmlns="http://www.w3.org/2000/svg" viewBox="0 0 104.79 117.77"><defs><style>.cls-1{fill:#2891e1;}</style></defs><g id="Laag_2" data-name="Laag 2"><g id="Laag_1-2" data-name="Laag 1"><path class="cls-1" d="M96,105.91c-1.7-.47-2-2.16-2.16-4.92l-.46-25.37V59.33c0-15.83-.31-27.51-28.74-27.51-13.22,0-21.83,5.84-27.67,10.29V5.38C37,1.84,35.46,0,31,0A172.53,172.53,0,0,0,0,3.23V14.6H12V68.34H37.62V52.26c4.61-1.69,12.29-2.61,18.9-2.61,11.07,0,11.22,8.76,11.22,18v8l-.31,24.75c0,2.31-.3,4.31-2.92,5.54l-5.38,2.45a30.49,30.49,0,0,0,.62,9.38h43.81c.92-2.46,1.23-3.69,1.23-9.38Z"/></g></g></svg>